<svg width="32" height="32" viewBox="0 0 32 32" fill="none" xmlns="http://www.w3.org/2000/svg">
<rect width="32" height="32" rx="5" fill="url(#paint0_linear_2007_15)"/>
<g filter="url(#filter0_f_2007_15)">
<circle cx="19.9167" cy="12" r="6" fill="#FFEE00"/>
</g>
<path d="M19.9498 4.0252C17.92 4.0252 15.8893 4.79768 14.3433 6.34367C11.3641 9.32285 11.256 14.099 14.018 17.2093L13.2165 18.009L13.8894 18.6819L14.6892 17.8806C17.7994 20.6425 22.5755 20.5344 25.5547 17.5552C28.6467 14.4633 28.6467 9.43558 25.5547 6.34372C24.0089 4.79768 21.9796 4.0252 19.9498 4.0252ZM19.9498 4.9678C21.7347 4.9678 23.5189 5.6503 24.8836 7.01494C27.6128 9.74418 27.6128 14.1548 24.8836 16.8839C22.267 19.5005 18.1063 19.608 15.3621 17.2077L15.3732 17.1966C15.2538 17.0925 15.1361 16.9849 15.0225 16.8713C14.9104 16.7593 14.8047 16.643 14.7019 16.5254L14.6908 16.5365C12.2904 13.7923 12.3979 9.6315 15.0145 7.01494C16.3792 5.6503 18.1648 4.9678 19.9498 4.9678ZM19.9498 5.92315C18.4106 5.92315 16.8709 6.51221 15.6938 7.68932C13.3395 10.0436 13.3395 13.8457 15.6938 16.2C16.2087 16.715 16.7923 17.1179 17.4155 17.4076C16.1506 16.4384 15.335 14.9126 15.335 13.1958C15.335 12.4177 15.5022 11.6781 15.8032 11.0122C15.5917 12.0525 15.8256 13.0882 16.538 13.8005C17.7864 15.0489 20.0289 14.8323 21.5463 13.3149C23.0636 11.7976 23.2803 9.55507 22.0317 8.30662C21.9126 8.1877 21.7824 8.08036 21.643 7.98603C23.9348 8.42519 25.7032 10.3395 25.9213 12.7024C26.1468 10.9215 25.575 9.06006 24.2043 7.68927C23.0272 6.51216 21.489 5.9231 19.9498 5.9231L19.9498 5.92315ZM11.9836 18.117L5.13759 24.9629L6.89269 26.7181L13.7387 19.8721L11.9836 18.117ZM5.03125 26.1976L4.21875 27.0084L4.89008 27.6797L5.70095 26.8672L5.03125 26.1976Z" fill="#2A2A2A"/>
<defs>
<filter id="filter0_f_2007_15" x="11.0167" y="3.1" width="17.8" height="17.8" filterUnits="userSpaceOnUse" color-interpolation-filters="sRGB">
<feFlood flood-opacity="0" result="BackgroundImageFix"/>
<feBlend mode="normal" in="SourceGraphic" in2="BackgroundImageFix" result="shape"/>
<feGaussianBlur stdDeviation="1.45" result="effect1_foregroundBlur_2007_15"/>
</filter>
<linearGradient id="paint0_linear_2007_15" x1="27.5" y1="2" x2="6" y2="32" gradientUnits="userSpaceOnUse">
<stop offset="0.129808" stop-color="#9DAAD6"/>
<stop offset="0.701923" stop-color="#4E5469"/>
</linearGradient>
</defs>
</svg>
